<svg width="1480" height="250" viewBox="0 0 1480 250" fill="none" xmlns="http://www.w3.org/2000/svg">
<g clip-path="url(#clip0_334_425)">
<path d="M0 0H2281V250H0V0Z" fill="#0D0E12"/>
<path d="M1680.97 305.908C1672.3 311.594 1662.65 315.267 1652.18 316.9C1650.2 317.209 1648.29 317.427 1646.06 317.212C1639.63 317.654 1633.26 317.443 1627.27 316.371C1620.85 315.285 1615.06 313.378 1609.74 310.675C1600.04 305.846 1590.91 298.681 1582.71 289.363C1567.43 271.997 1556.33 248.843 1547.52 228.541L1541.94 215.688C1534.73 199.08 1527.91 183.388 1520.04 171.094C1514.98 162.972 1510.2 157.215 1505.37 153.312C1500.83 149.605 1495.69 147.517 1488.97 146.639C1483.26 145.763 1477.83 146.691 1471.92 149.458C1469.07 150.705 1466.06 152.539 1462.42 155.195C1459.37 157.277 1456.22 159.855 1452.73 162.968C1442.36 172.434 1431.77 185.299 1420.55 198.922L1420.12 199.443L1420.11 199.454C1416.57 203.777 1413.02 208.101 1409.45 212.346C1393.82 230.84 1376.74 249.8 1357.27 262.552C1346.69 269.5 1335.98 273.98 1324.5 276.173C1318.43 277.36 1312.33 277.75 1306.28 277.409C1302.79 277.231 1299.68 276.832 1296.46 276.211C1293.48 275.472 1290.3 274.603 1287.17 273.485C1275.19 269.173 1265.18 262.385 1257.24 253.107C1250.6 245.152 1245.6 235.254 1242.07 222.8C1239.29 213.038 1237.56 201.908 1236.79 188.703C1236.24 176.988 1236.37 164.765 1236.71 153.313L1236.94 144.446L1236.95 143.989C1237.5 124.322 1238.03 105.697 1235.65 89.8172C1234.25 80.8022 1231.98 73.7712 1228.75 68.1742C1225.29 62.2112 1220.83 57.9302 1214.87 54.9252C1188.32 41.0852 1152.81 65.4082 1115.26 91.2542L1115.06 91.3962C1072.75 120.438 1029.1 150.408 988.82 129.36C978.728 124.191 970.795 116.598 965.232 106.868C960.61 98.8392 957.418 89.1422 955.571 77.2272C952.884 59.3432 953.479 39.7432 954.137 18.9282L954.39 9.65623C954.659 -1.14277 954.889 -12.7388 954.331 -23.9708C953.797 -35.0458 952.315 -44.6088 949.989 -53.0768C947.414 -62.0678 943.926 -69.3108 939.527 -74.8058C934.454 -80.8388 928.044 -85.1368 919.908 -88.0428C912.728 -90.7758 905.038 -91.3428 896.416 -89.7568C888.618 -88.2998 880.922 -85.0928 872.999 -80.0838C860.249 -71.7258 848.072 -59.6748 836.611 -46.8728L836.611 -81.4378C843.892 -88.2838 851.516 -94.5588 859.552 -99.8218C870.402 -106.652 881.357 -111.171 892.277 -113.195C905.411 -115.645 918.136 -114.74 929.532 -110.416C941.518 -106.104 951.523 -99.3158 959.571 -89.8938C966.176 -81.6118 971.077 -71.7798 974.469 -59.7048C977.227 -49.5388 978.952 -38.4078 979.588 -25.5818C980.185 -13.5538 980.028 -1.48677 979.667 9.80823L979.427 19.1582L979.412 19.6432C978.836 39.1432 978.289 57.6012 980.642 73.3172C982.038 82.3312 984.24 89.4542 987.555 95.0382C990.918 100.935 995.382 105.216 1001.35 108.299C1028.07 122.187 1063.55 97.8102 1101.16 71.9622L1101.21 71.9322C1143.49 42.8592 1187.23 12.8352 1227.39 33.7862C1237.39 38.8902 1245.31 46.4052 1250.96 56.2002C1255.68 64.2942 1258.87 73.9922 1260.72 85.9062C1263.51 103.934 1262.94 123.692 1262.31 144.663L1262.07 153.451C1261.74 164.42 1261.52 176.095 1262.11 187C1262.79 198.455 1264.27 208.018 1266.55 216.172C1269.17 225.476 1272.64 232.563 1277.09 237.888C1282.17 243.921 1288.58 248.219 1296.54 251.072C1298.59 251.795 1300.63 252.44 1302.46 252.797C1304.2 253.088 1306.18 253.341 1308.39 253.477C1312.31 253.669 1316.25 253.457 1320.18 252.682C1328.21 251.108 1335.83 247.914 1343.57 242.852C1360.21 231.909 1375.85 214.617 1390.26 197.518C1392.96 194.374 1395.55 191.201 1398.16 188.016C1399.01 186.974 1399.87 185.932 1400.72 184.888L1401.9 183.461C1413.48 169.429 1424.42 156.175 1435.88 145.768C1440.17 141.887 1444.23 138.605 1448.05 136.003C1452.84 132.606 1457.24 129.913 1461.5 127.964C1471.98 123.118 1482.7 121.446 1493.15 122.946C1504.44 124.397 1513.91 128.298 1521.95 134.912C1528.98 140.479 1535.29 148.003 1541.72 158.4C1550.81 172.448 1558.2 189.641 1565.98 207.738L1566.02 207.835L1570.87 218.959C1578.92 237.692 1589.04 258.833 1602.16 273.725C1608.41 280.779 1614.85 285.875 1621.91 289.43C1625.03 291.031 1628.4 292.11 1632.23 292.798C1636.13 293.473 1640.3 293.627 1644.55 293.284C1652.98 292.612 1660.29 290.188 1666.73 285.972C1672.76 281.82 1678.25 275.826 1683.64 267.599C1694.36 251.157 1701.47 229.495 1707.82 208.838L1710.69 199.076C1716.54 179.058 1722.15 160.2 1730.06 144.196C1735.47 133.317 1741.43 124.921 1747.92 118.851C1756.12 110.67 1765.58 105.26 1776.18 102.804C1786.52 100.308 1797.17 100.895 1808.44 104.434C1817.39 107.133 1826.43 112.064 1836.18 119.375C1848.63 128.68 1861.13 141.444 1873.23 153.812L1873.98 154.581L1885.71 166.479C1900.32 181.219 1917.4 197.662 1935.48 207.525C1943.33 211.762 1951.14 214.236 1959.29 215.052C1967.85 215.803 1975.76 214.568 1983.04 211.347C1990.83 207.644 1997.11 202.409 2001.84 195.89C2004.07 192.814 2006.05 189.293 2007.59 185.601C2009.03 182.326 2010.18 178.294 2011.17 173.242C2014.88 154.119 2013.02 131.771 2010.48 110.491L2009.91 106.349C2009.51 103.334 2009.1 100.33 2008.7 97.3632L2008.53 96.0602C2006.05 77.4292 2003.71 59.7972 2004.11 43.7312C2004.55 30.8162 2006.08 21.5872 2009.09 13.8112C2010.93 8.78823 2013.44 4.22322 2016.53 0.208221C2019.33 -3.51978 2022.84 -7.03777 2027.73 -10.9308C2036.33 -17.5708 2046.54 -21.4118 2058.21 -22.4288C2068.48 -23.2268 2078.83 -22.3538 2089.87 -19.8198C2099.06 -17.7218 2109.53 -14.4578 2122.62 -9.59477C2131.84 -6.21677 2141.19 -2.53778 2150.64 1.20622L2155.86 3.28223C2177.07 11.5342 2199.28 19.7092 2218.86 21.7932C2238.45 23.8772 2252.94 19.8502 2263.24 9.49223C2286.91 -14.3498 2270.14 -52.2738 2252.36 -92.3688L2252.3 -92.4978C2233.21 -135.646 2211.61 -184.463 2246.33 -219.553C2254.89 -228.112 2265.19 -234.056 2277.03 -237.266C2287.33 -239.997 2298.97 -240.688 2311.76 -239.312C2313.36 -239.134 2314.97 -238.927 2316.61 -238.692V-214.604C2313.81 -215.096 2311.11 -215.481 2308.48 -215.761C2298.87 -216.751 2290.42 -216.314 2283.36 -214.411C2275.89 -212.443 2269.62 -208.737 2264.21 -203.395C2240.87 -179.787 2257.56 -142.075 2275.22 -102.172L2275.27 -102.043C2294.49 -58.7198 2316.18 -9.68277 2281.19 25.5592C2265.18 41.6232 2243.16 48.2692 2215.58 45.2662C2192.91 42.8612 2168.82 34.0152 2145.99 25.1332L2140.77 23.0572L2138.97 22.3502C2130.24 18.9142 2121.65 15.5392 2113.2 12.4262C2101.18 7.95822 2091.79 5.08823 2083.64 3.22823C2075.15 1.26223 2067.36 0.629227 2059.94 1.22623C2053.27 1.78423 2047.99 3.73123 2043.47 7.24623C2040.39 9.73323 2038.27 11.8302 2036.65 13.9292C2035.04 16.1062 2033.67 18.6492 2032.53 21.6372C2029.86 28.4742 2029.27 37.7182 2029.06 44.0122C2028.69 58.5202 2031.03 75.7382 2033.51 93.9742C2033.8 96.1182 2034.08 98.2652 2034.36 100.431C2034.64 102.711 2034.93 105.012 2035.25 107.351C2037.99 130.524 2040.03 155.093 2035.63 177.375C2034.28 183.927 2032.69 189.473 2030.72 194.196C2028.44 199.61 2025.59 204.71 2022.32 209.234C2015.17 219.181 2005.58 227.098 1993.54 232.828C1981.92 237.933 1969.48 239.953 1956.47 238.852C1944.72 237.714 1933.73 234.292 1922.83 228.364C1901.91 217.018 1883.32 199.043 1867.53 183.204C1863.54 179.251 1859.53 175.219 1855.61 171.174L1854.65 170.197C1842.77 158.095 1831.53 146.646 1820.55 138.43C1813.1 132.849 1806.54 129.216 1800.43 127.36C1793.59 125.215 1787.54 124.874 1781.84 126.245C1775.81 127.667 1770.78 130.62 1765.66 135.753C1761.01 140.09 1756.73 146.218 1752.68 154.475C1745.71 168.58 1740.48 186.386 1734.93 205.29L1734.84 205.585L1731.91 215.516C1725.07 237.857 1717.3 261.306 1704.89 280.421C1697.72 291.413 1689.97 299.687 1680.97 305.908Z" fill="#DFB7B7"/>
<g filter="url(#filter0_d_334_425)">
<mask id="path-3-inside-1_334_425" fill="white">
<path d="M-59.0614 331.908C-67.7245 337.594 -77.3753 341.267 -87.8484 342.9C-89.8279 343.209 -91.7365 343.427 -93.9657 343.212C-100.401 343.654 -106.768 343.443 -112.762 342.371C-119.18 341.285 -124.966 339.378 -130.283 336.675C-139.984 331.846 -149.118 324.681 -157.319 315.363C-172.595 297.997 -183.7 274.843 -192.505 254.541L-198.084 241.688C-205.299 225.08 -212.116 209.388 -219.99 197.094C-225.048 188.972 -229.826 183.215 -234.654 179.312C-239.198 175.605 -244.336 173.517 -251.059 172.639C-256.77 171.763 -262.201 172.691 -268.106 175.458C-270.953 176.705 -273.964 178.539 -277.606 181.195C-280.662 183.277 -283.81 185.855 -287.297 188.968C-297.672 198.434 -308.261 211.299 -319.476 224.922L-319.904 225.443L-319.913 225.454C-323.462 229.777 -327.012 234.101 -330.573 238.346C-346.204 256.84 -363.284 275.8 -382.76 288.552C-393.339 295.5 -404.046 299.98 -415.531 302.173C-421.598 303.36 -427.703 303.75 -433.752 303.409C-437.242 303.231 -440.344 302.832 -443.566 302.211C-446.552 301.472 -449.728 300.603 -452.856 299.485C-464.842 295.173 -474.848 288.385 -482.788 279.107C-489.427 271.152 -494.424 261.254 -497.958 248.8C-500.739 239.038 -502.463 227.908 -503.242 214.703C-503.791 202.988 -503.658 190.765 -503.321 179.313L-503.091 170.446L-503.078 169.989C-502.525 150.322 -502.001 131.697 -504.378 115.817C-505.775 106.802 -508.047 99.7712 -511.279 94.1742C-514.737 88.2112 -519.202 83.9302 -525.157 80.9252C-551.711 67.0852 -587.216 91.4082 -624.765 117.254L-624.971 117.396C-667.275 146.438 -710.928 176.408 -751.208 155.36C-761.3 150.191 -769.233 142.598 -774.796 132.868C-779.417 124.839 -782.61 115.142 -784.457 103.227C-787.143 85.3432 -786.549 65.7432 -785.89 44.9282L-785.638 35.6562C-785.368 24.8572 -785.139 13.2612 -785.697 2.02924C-786.231 -9.04576 -787.713 -18.6088 -790.038 -27.0768C-792.614 -36.0678 -796.101 -43.3108 -800.5 -48.8058C-805.574 -54.8388 -811.983 -59.1368 -820.12 -62.0428C-827.3 -64.7758 -834.989 -65.3428 -843.612 -63.7568C-851.41 -62.2998 -859.105 -59.0928 -867.028 -54.0838C-879.778 -45.7258 -891.955 -33.6748 -903.417 -20.8728L-903.417 -55.4378C-896.136 -62.2838 -888.512 -68.5588 -880.476 -73.8218C-869.625 -80.6518 -858.67 -85.1708 -847.751 -87.1948C-834.617 -89.6448 -821.892 -88.7398 -810.496 -84.4158C-798.509 -80.1038 -788.505 -73.3158 -780.457 -63.8938C-773.852 -55.6118 -768.951 -45.7798 -765.559 -33.7048C-762.8 -23.5388 -761.076 -12.4078 -760.44 0.418228C-759.842 12.4462 -760 24.5132 -760.36 35.8082L-760.601 45.1582L-760.615 45.6432C-761.192 65.1432 -761.739 83.6012 -759.386 99.3172C-757.989 108.331 -755.788 115.454 -752.473 121.038C-749.109 126.935 -744.646 131.216 -738.678 134.299C-711.957 148.187 -676.481 123.81 -638.866 97.9622L-638.823 97.9322C-596.538 68.8592 -552.794 38.8352 -512.639 59.7862C-502.642 64.8902 -494.72 72.4052 -489.064 82.2002C-484.347 90.2942 -481.154 99.9922 -479.308 111.906C-476.514 129.934 -477.084 149.692 -477.719 170.663L-477.962 179.451C-478.289 190.42 -478.507 202.095 -477.915 213C-477.237 224.455 -475.756 234.018 -473.479 242.172C-470.854 251.476 -467.391 258.563 -462.934 263.888C-457.861 269.921 -451.451 274.219 -443.492 277.072C-441.438 277.795 -439.395 278.44 -437.566 278.797C-435.831 279.088 -433.85 279.341 -431.633 279.477C-427.718 279.669 -423.782 279.457 -419.847 278.682C-411.814 277.108 -404.2 273.914 -396.455 268.852C-379.823 257.909 -364.175 240.617 -349.764 223.518C-347.068 220.374 -344.473 217.201 -341.868 214.016C-341.016 212.974 -340.163 211.932 -339.306 210.888L-338.128 209.461C-326.548 195.429 -315.61 182.175 -304.151 171.768C-299.854 167.887 -295.802 164.605 -291.982 162.003C-287.188 158.606 -282.791 155.913 -278.532 153.964C-268.05 149.118 -257.329 147.446 -246.876 148.946C-235.587 150.397 -226.114 154.298 -218.079 160.912C-211.051 166.479 -204.733 174.003 -198.308 184.4C-189.217 198.448 -181.827 215.641 -174.05 233.738L-174.008 233.835L-169.159 244.959C-161.103 263.692 -150.986 284.833 -137.867 299.725C-131.622 306.779 -125.173 311.875 -118.119 315.43C-114.999 317.031 -111.623 318.11 -107.8 318.798C-103.895 319.473 -99.7326 319.627 -95.4776 319.284C-87.0519 318.612 -79.7413 316.188 -73.3002 311.972C-67.2712 307.82 -61.7808 301.826 -56.3839 293.599C-45.6714 277.157 -38.5551 255.495 -32.2127 234.838L-29.3339 225.076C-23.4828 205.058 -17.8752 186.2 -9.96646 170.196C-4.55829 159.317 1.40385 150.921 7.89633 144.851C16.0877 136.67 25.5535 131.26 36.153 128.804C46.4924 126.308 57.1413 126.895 68.416 130.434C77.3649 133.133 86.4062 138.064 96.1537 145.375C108.601 154.68 121.098 167.444 133.203 179.812L133.953 180.581L145.68 192.479C160.295 207.219 177.377 223.662 195.455 233.525C203.297 237.762 211.109 240.236 219.259 241.052C227.82 241.803 235.734 240.568 243.011 237.347C250.801 233.644 257.081 228.409 261.809 221.89C264.039 218.814 266.023 215.293 267.564 211.601C269.003 208.326 270.154 204.294 271.141 199.242C274.851 180.119 272.991 157.771 270.452 136.491L269.887 132.349C269.486 129.334 269.075 126.33 268.674 123.363L268.5 122.06C266.023 103.429 263.679 85.7972 264.08 69.7312C264.522 56.8162 266.054 47.5872 269.065 39.8112C270.905 34.7882 273.412 30.2232 276.506 26.2082C279.302 22.4802 282.817 18.9622 287.699 15.0692C296.301 8.42923 306.517 4.58823 318.182 3.57123C328.45 2.77323 338.8 3.64622 349.838 6.18022C359.037 8.27822 369.499 11.5422 382.593 16.4052C391.813 19.7832 401.165 23.4622 410.61 27.2062L415.832 29.2822C437.045 37.5342 459.255 45.7092 478.834 47.7932C498.424 49.8772 512.916 45.8502 523.214 35.4922C546.884 11.6502 530.11 -26.2738 512.33 -66.3688L512.268 -66.4978C493.182 -109.646 471.578 -158.463 506.307 -193.553C514.858 -202.112 525.167 -208.056 537.007 -211.266C547.305 -213.997 558.939 -214.688 571.735 -213.312C573.328 -213.134 574.942 -212.927 576.586 -212.692V-188.604C573.781 -189.096 571.077 -189.481 568.457 -189.761C558.847 -190.751 550.388 -190.314 543.327 -188.411C535.866 -186.443 529.596 -182.737 524.18 -177.395C500.839 -153.787 517.53 -116.075 535.187 -76.1718L535.239 -76.0428C554.458 -32.7198 576.155 16.3172 541.159 51.5592C525.156 67.6232 503.131 74.2692 475.556 71.2662C452.883 68.8612 428.792 60.0152 405.965 51.1332L400.744 49.0572L398.945 48.3502C390.209 44.9142 381.627 41.5392 373.169 38.4262C361.154 33.9582 351.76 31.0882 343.61 29.2282C335.12 27.2622 327.33 26.6292 319.909 27.2262C313.239 27.7842 307.966 29.7312 303.444 33.2462C300.361 35.7332 298.244 37.8302 296.62 39.9292C295.016 42.1062 293.639 44.6492 292.498 47.6372C289.836 54.4742 289.24 63.7182 289.035 70.0122C288.665 84.5202 290.998 101.738 293.485 119.974C293.773 122.118 294.05 124.265 294.328 126.431C294.616 128.711 294.903 131.012 295.222 133.351C297.966 156.524 300.001 181.093 295.602 203.375C294.256 209.927 292.663 215.473 290.689 220.196C288.408 225.61 285.561 230.71 282.292 235.234C275.139 245.181 265.55 253.098 253.515 258.828C241.89 263.933 229.454 265.953 216.443 264.852C204.695 263.714 193.698 260.292 182.804 254.364C161.878 243.018 143.296 225.043 127.499 209.204C123.508 205.251 119.504 201.219 115.584 197.174L114.624 196.197C102.744 184.095 91.504 172.646 80.5253 164.43C73.0729 158.849 66.5136 155.216 60.3983 153.36C53.5615 151.215 47.512 150.874 41.813 152.245C35.783 153.667 30.751 156.62 25.6337 161.753C20.9851 166.09 16.6982 172.218 12.657 180.475C5.68457 194.58 0.455224 212.386 -5.0958 231.29L-5.18319 231.585L-8.12055 241.516C-14.9625 263.857 -22.7304 287.306 -35.1398 306.421C-42.3044 317.413 -50.059 325.687 -59.0614 331.908Z"/>
</mask>
<path d="M-59.0614 331.908C-67.7245 337.594 -77.3753 341.267 -87.8484 342.9C-89.8279 343.209 -91.7365 343.427 -93.9657 343.212C-100.401 343.654 -106.768 343.443 -112.762 342.371C-119.18 341.285 -124.966 339.378 -130.283 336.675C-139.984 331.846 -149.118 324.681 -157.319 315.363C-172.595 297.997 -183.7 274.843 -192.505 254.541L-198.084 241.688C-205.299 225.08 -212.116 209.388 -219.99 197.094C-225.048 188.972 -229.826 183.215 -234.654 179.312C-239.198 175.605 -244.336 173.517 -251.059 172.639C-256.77 171.763 -262.201 172.691 -268.106 175.458C-270.953 176.705 -273.964 178.539 -277.606 181.195C-280.662 183.277 -283.81 185.855 -287.297 188.968C-297.672 198.434 -308.261 211.299 -319.476 224.922L-319.904 225.443L-319.913 225.454C-323.462 229.777 -327.012 234.101 -330.573 238.346C-346.204 256.84 -363.284 275.8 -382.76 288.552C-393.339 295.5 -404.046 299.98 -415.531 302.173C-421.598 303.36 -427.703 303.75 -433.752 303.409C-437.242 303.231 -440.344 302.832 -443.566 302.211C-446.552 301.472 -449.728 300.603 -452.856 299.485C-464.842 295.173 -474.848 288.385 -482.788 279.107C-489.427 271.152 -494.424 261.254 -497.958 248.8C-500.739 239.038 -502.463 227.908 -503.242 214.703C-503.791 202.988 -503.658 190.765 -503.321 179.313L-503.091 170.446L-503.078 169.989C-502.525 150.322 -502.001 131.697 -504.378 115.817C-505.775 106.802 -508.047 99.7712 -511.279 94.1742C-514.737 88.2112 -519.202 83.9302 -525.157 80.9252C-551.711 67.0852 -587.216 91.4082 -624.765 117.254L-624.971 117.396C-667.275 146.438 -710.928 176.408 -751.208 155.36C-761.3 150.191 -769.233 142.598 -774.796 132.868C-779.417 124.839 -782.61 115.142 -784.457 103.227C-787.143 85.3432 -786.549 65.7432 -785.89 44.9282L-785.638 35.6562C-785.368 24.8572 -785.139 13.2612 -785.697 2.02924C-786.231 -9.04576 -787.713 -18.6088 -790.038 -27.0768C-792.614 -36.0678 -796.101 -43.3108 -800.5 -48.8058C-805.574 -54.8388 -811.983 -59.1368 -820.12 -62.0428C-827.3 -64.7758 -834.989 -65.3428 -843.612 -63.7568C-851.41 -62.2998 -859.105 -59.0928 -867.028 -54.0838C-879.778 -45.7258 -891.955 -33.6748 -903.417 -20.8728L-903.417 -55.4378C-896.136 -62.2838 -888.512 -68.5588 -880.476 -73.8218C-869.625 -80.6518 -858.67 -85.1708 -847.751 -87.1948C-834.617 -89.6448 -821.892 -88.7398 -810.496 -84.4158C-798.509 -80.1038 -788.505 -73.3158 -780.457 -63.8938C-773.852 -55.6118 -768.951 -45.7798 -765.559 -33.7048C-762.8 -23.5388 -761.076 -12.4078 -760.44 0.418228C-759.842 12.4462 -760 24.5132 -760.36 35.8082L-760.601 45.1582L-760.615 45.6432C-761.192 65.1432 -761.739 83.6012 -759.386 99.3172C-757.989 108.331 -755.788 115.454 -752.473 121.038C-749.109 126.935 -744.646 131.216 -738.678 134.299C-711.957 148.187 -676.481 123.81 -638.866 97.9622L-638.823 97.9322C-596.538 68.8592 -552.794 38.8352 -512.639 59.7862C-502.642 64.8902 -494.72 72.4052 -489.064 82.2002C-484.347 90.2942 -481.154 99.9922 -479.308 111.906C-476.514 129.934 -477.084 149.692 -477.719 170.663L-477.962 179.451C-478.289 190.42 -478.507 202.095 -477.915 213C-477.237 224.455 -475.756 234.018 -473.479 242.172C-470.854 251.476 -467.391 258.563 -462.934 263.888C-457.861 269.921 -451.451 274.219 -443.492 277.072C-441.438 277.795 -439.395 278.44 -437.566 278.797C-435.831 279.088 -433.85 279.341 -431.633 279.477C-427.718 279.669 -423.782 279.457 -419.847 278.682C-411.814 277.108 -404.2 273.914 -396.455 268.852C-379.823 257.909 -364.175 240.617 -349.764 223.518C-347.068 220.374 -344.473 217.201 -341.868 214.016C-341.016 212.974 -340.163 211.932 -339.306 210.888L-338.128 209.461C-326.548 195.429 -315.61 182.175 -304.151 171.768C-299.854 167.887 -295.802 164.605 -291.982 162.003C-287.188 158.606 -282.791 155.913 -278.532 153.964C-268.05 149.118 -257.329 147.446 -246.876 148.946C-235.587 150.397 -226.114 154.298 -218.079 160.912C-211.051 166.479 -204.733 174.003 -198.308 184.4C-189.217 198.448 -181.827 215.641 -174.05 233.738L-174.008 233.835L-169.159 244.959C-161.103 263.692 -150.986 284.833 -137.867 299.725C-131.622 306.779 -125.173 311.875 -118.119 315.43C-114.999 317.031 -111.623 318.11 -107.8 318.798C-103.895 319.473 -99.7326 319.627 -95.4776 319.284C-87.0519 318.612 -79.7413 316.188 -73.3002 311.972C-67.2712 307.82 -61.7808 301.826 -56.3839 293.599C-45.6714 277.157 -38.5551 255.495 -32.2127 234.838L-29.3339 225.076C-23.4828 205.058 -17.8752 186.2 -9.96646 170.196C-4.55829 159.317 1.40385 150.921 7.89633 144.851C16.0877 136.67 25.5535 131.26 36.153 128.804C46.4924 126.308 57.1413 126.895 68.416 130.434C77.3649 133.133 86.4062 138.064 96.1537 145.375C108.601 154.68 121.098 167.444 133.203 179.812L133.953 180.581L145.68 192.479C160.295 207.219 177.377 223.662 195.455 233.525C203.297 237.762 211.109 240.236 219.259 241.052C227.82 241.803 235.734 240.568 243.011 237.347C250.801 233.644 257.081 228.409 261.809 221.89C264.039 218.814 266.023 215.293 267.564 211.601C269.003 208.326 270.154 204.294 271.141 199.242C274.851 180.119 272.991 157.771 270.452 136.491L269.887 132.349C269.486 129.334 269.075 126.33 268.674 123.363L268.5 122.06C266.023 103.429 263.679 85.7972 264.08 69.7312C264.522 56.8162 266.054 47.5872 269.065 39.8112C270.905 34.7882 273.412 30.2232 276.506 26.2082C279.302 22.4802 282.817 18.9622 287.699 15.0692C296.301 8.42923 306.517 4.58823 318.182 3.57123C328.45 2.77323 338.8 3.64622 349.838 6.18022C359.037 8.27822 369.499 11.5422 382.593 16.4052C391.813 19.7832 401.165 23.4622 410.61 27.2062L415.832 29.2822C437.045 37.5342 459.255 45.7092 478.834 47.7932C498.424 49.8772 512.916 45.8502 523.214 35.4922C546.884 11.6502 530.11 -26.2738 512.33 -66.3688L512.268 -66.4978C493.182 -109.646 471.578 -158.463 506.307 -193.553C514.858 -202.112 525.167 -208.056 537.007 -211.266C547.305 -213.997 558.939 -214.688 571.735 -213.312C573.328 -213.134 574.942 -212.927 576.586 -212.692V-188.604C573.781 -189.096 571.077 -189.481 568.457 -189.761C558.847 -190.751 550.388 -190.314 543.327 -188.411C535.866 -186.443 529.596 -182.737 524.18 -177.395C500.839 -153.787 517.53 -116.075 535.187 -76.1718L535.239 -76.0428C554.458 -32.7198 576.155 16.3172 541.159 51.5592C525.156 67.6232 503.131 74.2692 475.556 71.2662C452.883 68.8612 428.792 60.0152 405.965 51.1332L400.744 49.0572L398.945 48.3502C390.209 44.9142 381.627 41.5392 373.169 38.4262C361.154 33.9582 351.76 31.0882 343.61 29.2282C335.12 27.2622 327.33 26.6292 319.909 27.2262C313.239 27.7842 307.966 29.7312 303.444 33.2462C300.361 35.7332 298.244 37.8302 296.62 39.9292C295.016 42.1062 293.639 44.6492 292.498 47.6372C289.836 54.4742 289.24 63.7182 289.035 70.0122C288.665 84.5202 290.998 101.738 293.485 119.974C293.773 122.118 294.05 124.265 294.328 126.431C294.616 128.711 294.903 131.012 295.222 133.351C297.966 156.524 300.001 181.093 295.602 203.375C294.256 209.927 292.663 215.473 290.689 220.196C288.408 225.61 285.561 230.71 282.292 235.234C275.139 245.181 265.55 253.098 253.515 258.828C241.89 263.933 229.454 265.953 216.443 264.852C204.695 263.714 193.698 260.292 182.804 254.364C161.878 243.018 143.296 225.043 127.499 209.204C123.508 205.251 119.504 201.219 115.584 197.174L114.624 196.197C102.744 184.095 91.504 172.646 80.5253 164.43C73.0729 158.849 66.5136 155.216 60.3983 153.36C53.5615 151.215 47.512 150.874 41.813 152.245C35.783 153.667 30.751 156.62 25.6337 161.753C20.9851 166.09 16.6982 172.218 12.657 180.475C5.68457 194.58 0.455224 212.386 -5.0958 231.29L-5.18319 231.585L-8.12055 241.516C-14.9625 263.857 -22.7304 287.306 -35.1398 306.421C-42.3044 317.413 -50.059 325.687 -59.0614 331.908Z" fill="#DFB7B7"/>
<path d="M-59.0614 331.908C-67.7245 337.594 -77.3753 341.267 -87.8484 342.9C-89.8279 343.209 -91.7365 343.427 -93.9657 343.212C-100.401 343.654 -106.768 343.443 -112.762 342.371C-119.18 341.285 -124.966 339.378 -130.283 336.675C-139.984 331.846 -149.118 324.681 -157.319 315.363C-172.595 297.997 -183.7 274.843 -192.505 254.541L-198.084 241.688C-205.299 225.08 -212.116 209.388 -219.99 197.094C-225.048 188.972 -229.826 183.215 -234.654 179.312C-239.198 175.605 -244.336 173.517 -251.059 172.639C-256.77 171.763 -262.201 172.691 -268.106 175.458C-270.953 176.705 -273.964 178.539 -277.606 181.195C-280.662 183.277 -283.81 185.855 -287.297 188.968C-297.672 198.434 -308.261 211.299 -319.476 224.922L-319.904 225.443L-319.913 225.454C-323.462 229.777 -327.012 234.101 -330.573 238.346C-346.204 256.84 -363.284 275.8 -382.76 288.552C-393.339 295.5 -404.046 299.98 -415.531 302.173C-421.598 303.36 -427.703 303.75 -433.752 303.409C-437.242 303.231 -440.344 302.832 -443.566 302.211C-446.552 301.472 -449.728 300.603 -452.856 299.485C-464.842 295.173 -474.848 288.385 -482.788 279.107C-489.427 271.152 -494.424 261.254 -497.958 248.8C-500.739 239.038 -502.463 227.908 -503.242 214.703C-503.791 202.988 -503.658 190.765 -503.321 179.313L-503.091 170.446L-503.078 169.989C-502.525 150.322 -502.001 131.697 -504.378 115.817C-505.775 106.802 -508.047 99.7712 -511.279 94.1742C-514.737 88.2112 -519.202 83.9302 -525.157 80.9252C-551.711 67.0852 -587.216 91.4082 -624.765 117.254L-624.971 117.396C-667.275 146.438 -710.928 176.408 -751.208 155.36C-761.3 150.191 -769.233 142.598 -774.796 132.868C-779.417 124.839 -782.61 115.142 -784.457 103.227C-787.143 85.3432 -786.549 65.7432 -785.89 44.9282L-785.638 35.6562C-785.368 24.8572 -785.139 13.2612 -785.697 2.02924C-786.231 -9.04576 -787.713 -18.6088 -790.038 -27.0768C-792.614 -36.0678 -796.101 -43.3108 -800.5 -48.8058C-805.574 -54.8388 -811.983 -59.1368 -820.12 -62.0428C-827.3 -64.7758 -834.989 -65.3428 -843.612 -63.7568C-851.41 -62.2998 -859.105 -59.0928 -867.028 -54.0838C-879.778 -45.7258 -891.955 -33.6748 -903.417 -20.8728L-903.417 -55.4378C-896.136 -62.2838 -888.512 -68.5588 -880.476 -73.8218C-869.625 -80.6518 -858.67 -85.1708 -847.751 -87.1948C-834.617 -89.6448 -821.892 -88.7398 -810.496 -84.4158C-798.509 -80.1038 -788.505 -73.3158 -780.457 -63.8938C-773.852 -55.6118 -768.951 -45.7798 -765.559 -33.7048C-762.8 -23.5388 -761.076 -12.4078 -760.44 0.418228C-759.842 12.4462 -760 24.5132 -760.36 35.8082L-760.601 45.1582L-760.615 45.6432C-761.192 65.1432 -761.739 83.6012 -759.386 99.3172C-757.989 108.331 -755.788 115.454 -752.473 121.038C-749.109 126.935 -744.646 131.216 -738.678 134.299C-711.957 148.187 -676.481 123.81 -638.866 97.9622L-638.823 97.9322C-596.538 68.8592 -552.794 38.8352 -512.639 59.7862C-502.642 64.8902 -494.72 72.4052 -489.064 82.2002C-484.347 90.2942 -481.154 99.9922 -479.308 111.906C-476.514 129.934 -477.084 149.692 -477.719 170.663L-477.962 179.451C-478.289 190.42 -478.507 202.095 -477.915 213C-477.237 224.455 -475.756 234.018 -473.479 242.172C-470.854 251.476 -467.391 258.563 -462.934 263.888C-457.861 269.921 -451.451 274.219 -443.492 277.072C-441.438 277.795 -439.395 278.44 -437.566 278.797C-435.831 279.088 -433.85 279.341 -431.633 279.477C-427.718 279.669 -423.782 279.457 -419.847 278.682C-411.814 277.108 -404.2 273.914 -396.455 268.852C-379.823 257.909 -364.175 240.617 -349.764 223.518C-347.068 220.374 -344.473 217.201 -341.868 214.016C-341.016 212.974 -340.163 211.932 -339.306 210.888L-338.128 209.461C-326.548 195.429 -315.61 182.175 -304.151 171.768C-299.854 167.887 -295.802 164.605 -291.982 162.003C-287.188 158.606 -282.791 155.913 -278.532 153.964C-268.05 149.118 -257.329 147.446 -246.876 148.946C-235.587 150.397 -226.114 154.298 -218.079 160.912C-211.051 166.479 -204.733 174.003 -198.308 184.4C-189.217 198.448 -181.827 215.641 -174.05 233.738L-174.008 233.835L-169.159 244.959C-161.103 263.692 -150.986 284.833 -137.867 299.725C-131.622 306.779 -125.173 311.875 -118.119 315.43C-114.999 317.031 -111.623 318.11 -107.8 318.798C-103.895 319.473 -99.7326 319.627 -95.4776 319.284C-87.0519 318.612 -79.7413 316.188 -73.3002 311.972C-67.2712 307.82 -61.7808 301.826 -56.3839 293.599C-45.6714 277.157 -38.5551 255.495 -32.2127 234.838L-29.3339 225.076C-23.4828 205.058 -17.8752 186.2 -9.96646 170.196C-4.55829 159.317 1.40385 150.921 7.89633 144.851C16.0877 136.67 25.5535 131.26 36.153 128.804C46.4924 126.308 57.1413 126.895 68.416 130.434C77.3649 133.133 86.4062 138.064 96.1537 145.375C108.601 154.68 121.098 167.444 133.203 179.812L133.953 180.581L145.68 192.479C160.295 207.219 177.377 223.662 195.455 233.525C203.297 237.762 211.109 240.236 219.259 241.052C227.82 241.803 235.734 240.568 243.011 237.347C250.801 233.644 257.081 228.409 261.809 221.89C264.039 218.814 266.023 215.293 267.564 211.601C269.003 208.326 270.154 204.294 271.141 199.242C274.851 180.119 272.991 157.771 270.452 136.491L269.887 132.349C269.486 129.334 269.075 126.33 268.674 123.363L268.5 122.06C266.023 103.429 263.679 85.7972 264.08 69.7312C264.522 56.8162 266.054 47.5872 269.065 39.8112C270.905 34.7882 273.412 30.2232 276.506 26.2082C279.302 22.4802 282.817 18.9622 287.699 15.0692C296.301 8.42923 306.517 4.58823 318.182 3.57123C328.45 2.77323 338.8 3.64622 349.838 6.18022C359.037 8.27822 369.499 11.5422 382.593 16.4052C391.813 19.7832 401.165 23.4622 410.61 27.2062L415.832 29.2822C437.045 37.5342 459.255 45.7092 478.834 47.7932C498.424 49.8772 512.916 45.8502 523.214 35.4922C546.884 11.6502 530.11 -26.2738 512.33 -66.3688L512.268 -66.4978C493.182 -109.646 471.578 -158.463 506.307 -193.553C514.858 -202.112 525.167 -208.056 537.007 -211.266C547.305 -213.997 558.939 -214.688 571.735 -213.312C573.328 -213.134 574.942 -212.927 576.586 -212.692V-188.604C573.781 -189.096 571.077 -189.481 568.457 -189.761C558.847 -190.751 550.388 -190.314 543.327 -188.411C535.866 -186.443 529.596 -182.737 524.18 -177.395C500.839 -153.787 517.53 -116.075 535.187 -76.1718L535.239 -76.0428C554.458 -32.7198 576.155 16.3172 541.159 51.5592C525.156 67.6232 503.131 74.2692 475.556 71.2662C452.883 68.8612 428.792 60.0152 405.965 51.1332L400.744 49.0572L398.945 48.3502C390.209 44.9142 381.627 41.5392 373.169 38.4262C361.154 33.9582 351.76 31.0882 343.61 29.2282C335.12 27.2622 327.33 26.6292 319.909 27.2262C313.239 27.7842 307.966 29.7312 303.444 33.2462C300.361 35.7332 298.244 37.8302 296.62 39.9292C295.016 42.1062 293.639 44.6492 292.498 47.6372C289.836 54.4742 289.24 63.7182 289.035 70.0122C288.665 84.5202 290.998 101.738 293.485 119.974C293.773 122.118 294.05 124.265 294.328 126.431C294.616 128.711 294.903 131.012 295.222 133.351C297.966 156.524 300.001 181.093 295.602 203.375C294.256 209.927 292.663 215.473 290.689 220.196C288.408 225.61 285.561 230.71 282.292 235.234C275.139 245.181 265.55 253.098 253.515 258.828C241.89 263.933 229.454 265.953 216.443 264.852C204.695 263.714 193.698 260.292 182.804 254.364C161.878 243.018 143.296 225.043 127.499 209.204C123.508 205.251 119.504 201.219 115.584 197.174L114.624 196.197C102.744 184.095 91.504 172.646 80.5253 164.43C73.0729 158.849 66.5136 155.216 60.3983 153.36C53.5615 151.215 47.512 150.874 41.813 152.245C35.783 153.667 30.751 156.62 25.6337 161.753C20.9851 166.09 16.6982 172.218 12.657 180.475C5.68457 194.58 0.455224 212.386 -5.0958 231.29L-5.18319 231.585L-8.12055 241.516C-14.9625 263.857 -22.7304 287.306 -35.1398 306.421C-42.3044 317.413 -50.059 325.687 -59.0614 331.908Z" stroke="black" stroke-width="2" mask="url(#path-3-inside-1_334_425)"/>
</g>
</g>
<defs>
<filter id="filter0_d_334_425" x="-907.417" y="-214" width="1488" height="565.429" filterUnits="userSpaceOnUse" color-interpolation-filters="sRGB">
<feFlood flood-opacity="0" result="BackgroundImageFix"/>
<feColorMatrix in="SourceAlpha" type="matrix" values="0 0 0 0 0 0 0 0 0 0 0 0 0 0 0 0 0 0 127 0" result="hardAlpha"/>
<feOffset dy="4"/>
<feGaussianBlur stdDeviation="2"/>
<feComposite in2="hardAlpha" operator="out"/>
<feColorMatrix type="matrix" values="0 0 0 0 0 0 0 0 0 0 0 0 0 0 0 0 0 0 0.25 0"/>
<feBlend mode="normal" in2="BackgroundImageFix" result="effect1_dropShadow_334_425"/>
<feBlend mode="normal" in="SourceGraphic" in2="effect1_dropShadow_334_425" result="shape"/>
</filter>
<clipPath id="clip0_334_425">
<rect width="1480" height="250" fill="white"/>
</clipPath>
</defs>
</svg>
