<svg width="1440" height="250" viewBox="0 0 1440 250" fill="none" xmlns="http://www.w3.org/2000/svg">
<g clip-path="url(#clip0_334_425)">
<rect width="1440" height="250" fill="#0D0E12"/>
<path d="M1635.53 305.908C1627.11 311.594 1617.72 315.267 1607.53 316.9C1605.6 317.209 1603.74 317.427 1601.57 317.212C1595.31 317.654 1589.12 317.443 1583.29 316.371C1577.04 315.285 1571.41 313.378 1566.24 310.675C1556.8 305.846 1547.91 298.681 1539.93 289.363C1525.07 271.997 1514.26 248.843 1505.7 228.541L1500.27 215.688C1493.25 199.08 1486.62 183.388 1478.96 171.094C1474.03 162.972 1469.39 157.215 1464.69 153.312C1460.27 149.605 1455.27 147.517 1448.73 146.639C1443.17 145.763 1437.89 146.691 1432.14 149.458C1429.37 150.705 1426.44 152.539 1422.9 155.195C1419.92 157.277 1416.86 159.855 1413.47 162.968C1403.37 172.434 1393.07 185.299 1382.16 198.922L1381.74 199.443L1381.73 199.454C1378.28 203.777 1374.83 208.101 1371.36 212.346C1356.15 230.84 1339.53 249.8 1320.58 262.552C1310.29 269.5 1299.87 273.98 1288.7 276.173C1282.8 277.36 1276.86 277.75 1270.97 277.409C1267.57 277.231 1264.56 276.832 1261.42 276.211C1258.52 275.472 1255.43 274.603 1252.38 273.485C1240.72 269.173 1230.99 262.385 1223.26 253.107C1216.8 245.152 1211.94 235.254 1208.5 222.8C1205.79 213.038 1204.12 201.908 1203.36 188.703C1202.82 176.988 1202.95 164.765 1203.28 153.313L1203.51 144.446L1203.52 143.989C1204.06 124.322 1204.57 105.697 1202.25 89.8172C1200.89 80.8022 1198.68 73.7712 1195.54 68.1742C1192.17 62.2112 1187.83 57.9302 1182.04 54.9252C1156.2 41.0852 1121.65 65.4082 1085.12 91.2542L1084.92 91.3962C1043.76 120.438 1001.29 150.408 962.095 129.36C952.276 124.191 944.557 116.598 939.145 106.868C934.648 98.8392 931.542 89.1422 929.745 77.2272C927.131 59.3432 927.709 39.7432 928.35 18.9282L928.596 9.65623C928.858 -1.14277 929.081 -12.7388 928.538 -23.9708C928.019 -35.0458 926.577 -44.6088 924.314 -53.0768C921.808 -62.0678 918.415 -69.3108 914.135 -74.8058C909.198 -80.8388 902.962 -85.1368 895.046 -88.0428C888.059 -90.7758 880.578 -91.3428 872.188 -89.7568C864.601 -88.2998 857.114 -85.0928 849.405 -80.0838C836.999 -71.7258 825.151 -59.6748 814 -46.8728L814 -81.4378C821.084 -88.2838 828.502 -94.5588 836.321 -99.8218C846.878 -106.652 857.537 -111.171 868.161 -113.195C880.94 -115.645 893.321 -114.74 904.41 -110.416C916.072 -106.104 925.806 -99.3158 933.637 -89.8938C940.063 -81.6118 944.832 -71.7798 948.132 -59.7048C950.816 -49.5388 952.494 -38.4078 953.113 -25.5818C953.694 -13.5538 953.541 -1.48677 953.19 9.80823L952.956 19.1582L952.942 19.6432C952.381 39.1432 951.849 57.6012 954.138 73.3172C955.497 82.3312 957.639 89.4542 960.864 95.0382C964.137 100.935 968.48 105.216 974.286 108.299C1000.28 122.187 1034.8 97.8102 1071.4 71.9622L1071.44 71.9322C1112.58 42.8592 1155.15 12.8352 1194.22 33.7862C1203.94 38.8902 1211.65 46.4052 1217.15 56.2002C1221.74 64.2942 1224.85 73.9922 1226.65 85.9062C1229.36 103.934 1228.81 123.692 1228.19 144.663L1227.96 153.451C1227.64 164.42 1227.43 176.095 1228 187C1228.66 198.455 1230.1 208.018 1232.32 216.172C1234.87 225.476 1238.24 232.563 1242.58 237.888C1247.51 243.921 1253.75 248.219 1261.49 251.072C1263.49 251.795 1265.48 252.44 1267.26 252.797C1268.95 253.088 1270.88 253.341 1273.03 253.477C1276.84 253.669 1280.67 253.457 1284.5 252.682C1292.32 251.108 1299.72 247.914 1307.26 242.852C1323.44 231.909 1338.67 214.617 1352.69 197.518C1355.31 194.374 1357.84 191.201 1360.37 188.016C1361.2 186.974 1362.03 185.932 1362.86 184.888L1364.01 183.461C1375.28 169.429 1385.92 156.175 1397.07 145.768C1401.25 141.887 1405.19 138.605 1408.91 136.003C1413.57 132.606 1417.85 129.913 1422 127.964C1432.19 123.118 1442.63 121.446 1452.8 122.946C1463.78 124.397 1473 128.298 1480.81 134.912C1487.65 140.479 1493.8 148.003 1500.05 158.4C1508.9 172.448 1516.09 189.641 1523.65 207.738L1523.69 207.835L1528.41 218.959C1536.25 237.692 1546.09 258.833 1558.86 273.725C1564.93 280.779 1571.21 285.875 1578.07 289.43C1581.11 291.031 1584.39 292.11 1588.11 292.798C1591.91 293.473 1595.96 293.627 1600.1 293.284C1608.3 292.612 1615.41 290.188 1621.68 285.972C1627.55 281.82 1632.89 275.826 1638.14 267.599C1648.56 251.157 1655.49 229.495 1661.66 208.838L1664.46 199.076C1670.15 179.058 1675.61 160.2 1683.3 144.196C1688.56 133.317 1694.37 124.921 1700.68 118.851C1708.65 110.67 1717.86 105.26 1728.18 102.804C1738.24 100.308 1748.6 100.895 1759.57 104.434C1768.27 107.133 1777.07 112.064 1786.55 119.375C1798.67 128.68 1810.82 141.444 1822.6 153.812L1823.33 154.581L1834.74 166.479C1848.96 181.219 1865.58 197.662 1883.17 207.525C1890.8 211.762 1898.4 214.236 1906.33 215.052C1914.66 215.803 1922.36 214.568 1929.44 211.347C1937.02 207.644 1943.13 202.409 1947.73 195.89C1949.9 192.814 1951.83 189.293 1953.33 185.601C1954.73 182.326 1955.85 178.294 1956.81 173.242C1960.42 154.119 1958.61 131.771 1956.14 110.491L1955.59 106.349C1955.2 103.334 1954.8 100.33 1954.41 97.3632L1954.24 96.0602C1951.83 77.4292 1949.55 59.7972 1949.94 43.7312C1950.37 30.8162 1951.86 21.5872 1954.79 13.8112C1956.58 8.78823 1959.02 4.22322 1962.03 0.208221C1964.75 -3.51978 1968.17 -7.03777 1972.92 -10.9308C1981.29 -17.5708 1991.23 -21.4118 2002.58 -22.4288C2012.57 -23.2268 2022.64 -22.3538 2033.38 -19.8198C2042.33 -17.7218 2052.51 -14.4578 2065.25 -9.59477C2074.22 -6.21677 2083.32 -2.53778 2092.51 1.20622L2097.59 3.28223C2118.23 11.5342 2139.84 19.7092 2158.89 21.7932C2177.95 23.8772 2192.05 19.8502 2202.07 9.49223C2225.1 -14.3498 2208.78 -52.2738 2191.48 -92.3688L2191.42 -92.4978C2172.85 -135.646 2151.83 -184.463 2185.62 -219.553C2193.94 -228.112 2203.97 -234.056 2215.49 -237.266C2225.51 -239.997 2236.83 -240.688 2249.28 -239.312C2250.83 -239.134 2252.4 -238.927 2254 -238.692V-214.604C2251.27 -215.096 2248.64 -215.481 2246.09 -215.761C2236.74 -216.751 2228.51 -216.314 2221.64 -214.411C2214.38 -212.443 2208.28 -208.737 2203.01 -203.395C2180.3 -179.787 2196.54 -142.075 2213.72 -102.172L2213.77 -102.043C2232.47 -58.7198 2253.58 -9.68277 2219.53 25.5592C2203.96 41.6232 2182.53 48.2692 2155.7 45.2662C2133.64 42.8612 2110.2 34.0152 2087.99 25.1332L2082.91 23.0572L2081.16 22.3502C2072.66 18.9142 2064.31 15.5392 2056.08 12.4262C2044.39 7.95822 2035.25 5.08823 2027.32 3.22823C2019.06 1.26223 2011.48 0.629227 2004.26 1.22623C1997.77 1.78423 1992.64 3.73123 1988.24 7.24623C1985.24 9.73323 1983.18 11.8302 1981.6 13.9292C1980.04 16.1062 1978.7 18.6492 1977.59 21.6372C1975 28.4742 1974.42 37.7182 1974.22 44.0122C1973.86 58.5202 1976.13 75.7382 1978.55 93.9742C1978.83 96.1182 1979.1 98.2652 1979.37 100.431C1979.65 102.711 1979.93 105.012 1980.24 107.351C1982.91 130.524 1984.89 155.093 1980.61 177.375C1979.3 183.927 1977.75 189.473 1975.83 194.196C1973.61 199.61 1970.84 204.71 1967.66 209.234C1960.7 219.181 1951.37 227.098 1939.66 232.828C1928.35 237.933 1916.25 239.953 1903.59 238.852C1892.16 237.714 1881.46 234.292 1870.86 228.364C1850.5 217.018 1832.42 199.043 1817.05 183.204C1813.17 179.251 1809.27 175.219 1805.46 171.174L1804.53 170.197C1792.97 158.095 1782.03 146.646 1771.35 138.43C1764.1 132.849 1757.72 129.216 1751.77 127.36C1745.11 125.215 1739.23 124.874 1733.68 126.245C1727.82 127.667 1722.92 130.62 1717.94 135.753C1713.42 140.09 1709.25 146.218 1705.31 154.475C1698.53 168.58 1693.44 186.386 1688.04 205.29L1687.96 205.585L1685.1 215.516C1678.44 237.857 1670.88 261.306 1658.81 280.421C1651.84 291.413 1644.29 299.687 1635.53 305.908Z" fill="#DFB7B7"/>
<g filter="url(#filter0_d_334_425)">
<mask id="path-3-inside-1_334_425" fill="white">
<path d="M-57.4651 331.908C-65.8941 337.594 -75.2841 341.267 -85.4741 342.9C-87.4001 343.209 -89.2571 343.427 -91.4261 343.212C-97.6871 343.654 -103.882 343.443 -109.714 342.371C-115.959 341.285 -121.588 339.378 -126.762 336.675C-136.201 331.846 -145.088 324.681 -153.067 315.363C-167.93 297.997 -178.735 274.843 -187.302 254.541L-192.73 241.688C-199.75 225.08 -206.383 209.388 -214.044 197.094C-218.966 188.972 -223.614 183.215 -228.312 179.312C-232.733 175.605 -237.732 173.517 -244.274 172.639C-249.83 171.763 -255.114 172.691 -260.86 175.458C-263.63 176.705 -266.559 178.539 -270.103 181.195C-273.076 183.277 -276.139 185.855 -279.532 188.968C-289.627 198.434 -299.93 211.299 -310.841 224.922L-311.258 225.443L-311.267 225.454C-314.72 229.777 -318.174 234.101 -321.639 238.346C-336.847 256.84 -353.465 275.8 -372.415 288.552C-382.708 295.5 -393.126 299.98 -404.3 302.173C-410.203 303.36 -416.143 303.75 -422.029 303.409C-425.425 303.231 -428.443 302.832 -431.578 302.211C-434.483 301.472 -437.573 300.603 -440.617 299.485C-452.279 295.173 -462.014 288.385 -469.74 279.107C-476.199 271.152 -481.061 261.254 -484.5 248.8C-487.205 239.038 -488.883 227.908 -489.641 214.703C-490.175 202.988 -490.046 190.765 -489.718 179.313L-489.494 170.446L-489.481 169.989C-488.943 150.322 -488.433 131.697 -490.746 115.817C-492.105 106.802 -494.316 99.7712 -497.461 94.1742C-500.825 88.2112 -505.169 83.9302 -510.963 80.9252C-536.8 67.0852 -571.345 91.4082 -607.879 117.254L-608.08 117.396C-649.24 146.438 -691.714 176.408 -730.905 155.36C-740.724 150.191 -748.443 142.598 -753.855 132.868C-758.352 124.839 -761.458 115.142 -763.255 103.227C-765.869 85.3432 -765.291 65.7432 -764.65 44.9282L-764.404 35.6562C-764.142 24.8572 -763.919 13.2612 -764.462 2.02924C-764.981 -9.04576 -766.423 -18.6088 -768.686 -27.0768C-771.192 -36.0678 -774.585 -43.3108 -778.865 -48.8058C-783.802 -54.8388 -790.038 -59.1368 -797.954 -62.0428C-804.941 -64.7758 -812.422 -65.3428 -820.812 -63.7568C-828.399 -62.2998 -835.886 -59.0928 -843.595 -54.0838C-856.001 -45.7258 -867.849 -33.6748 -879 -20.8728L-879 -55.4378C-871.916 -62.2838 -864.498 -68.5588 -856.679 -73.8218C-846.122 -80.6518 -835.463 -85.1708 -824.839 -87.1948C-812.06 -89.6448 -799.679 -88.7398 -788.59 -84.4158C-776.928 -80.1038 -767.194 -73.3158 -759.363 -63.8938C-752.937 -55.6118 -748.168 -45.7798 -744.868 -33.7048C-742.184 -23.5388 -740.506 -12.4078 -739.887 0.418228C-739.306 12.4462 -739.459 24.5132 -739.81 35.8082L-740.044 45.1582L-740.058 45.6432C-740.619 65.1432 -741.151 83.6012 -738.862 99.3172C-737.503 108.331 -735.361 115.454 -732.136 121.038C-728.863 126.935 -724.52 131.216 -718.714 134.299C-692.715 148.187 -658.198 123.81 -621.599 97.9622L-621.557 97.9322C-580.415 68.8592 -537.854 38.8352 -498.784 59.7862C-489.057 64.8902 -481.349 72.4052 -475.846 82.2002C-471.256 90.2942 -468.15 99.9922 -466.354 111.906C-463.635 129.934 -464.19 149.692 -464.808 170.663L-465.044 179.451C-465.362 190.42 -465.574 202.095 -464.998 213C-464.339 224.455 -462.898 234.018 -460.682 242.172C-458.128 251.476 -454.759 258.563 -450.422 263.888C-445.486 269.921 -439.25 274.219 -431.506 277.072C-429.507 277.795 -427.519 278.44 -425.74 278.797C-424.052 279.088 -422.124 279.341 -419.967 279.477C-416.158 279.669 -412.328 279.457 -408.5 278.682C-400.684 277.108 -393.276 273.914 -385.74 268.852C-369.557 257.909 -354.332 240.617 -340.311 223.518C-337.688 220.374 -335.163 217.201 -332.628 214.016C-331.799 212.974 -330.969 211.932 -330.135 210.888L-328.989 209.461C-317.722 195.429 -307.08 182.175 -295.931 171.768C-291.75 167.887 -287.807 164.605 -284.091 162.003C-279.426 158.606 -275.148 155.913 -271.004 153.964C-260.805 149.118 -250.374 147.446 -240.204 148.946C-229.22 150.397 -220.003 154.298 -212.185 160.912C-205.347 166.479 -199.2 174.003 -192.948 184.4C-184.103 198.448 -176.913 215.641 -169.346 233.738L-169.305 233.835L-164.587 244.959C-156.749 263.692 -146.905 284.833 -134.141 299.725C-128.065 306.779 -121.79 311.875 -114.927 315.43C-111.891 317.031 -108.606 318.11 -104.886 318.798C-101.087 319.473 -97.0372 319.627 -92.8972 319.284C-84.6992 318.612 -77.5862 316.188 -71.3192 311.972C-65.4532 307.82 -60.1111 301.826 -54.8601 293.599C-44.4371 277.157 -37.5131 255.495 -31.3421 234.838L-28.5411 225.076C-22.8481 205.058 -17.3921 186.2 -9.69714 170.196C-4.43514 159.317 1.36586 150.921 7.68286 144.851C15.6529 136.67 24.8628 131.26 35.1758 128.804C45.2358 126.308 55.5969 126.895 66.5669 130.434C75.2739 133.133 84.0709 138.064 93.5549 145.375C105.666 154.68 117.825 167.444 129.603 179.812L130.333 180.581L141.743 192.479C155.963 207.219 172.583 223.662 190.173 233.525C197.803 237.762 205.403 240.236 213.333 241.052C221.663 241.803 229.363 240.568 236.443 237.347C244.023 233.644 250.133 228.409 254.733 221.89C256.903 218.814 258.833 215.293 260.333 211.601C261.733 208.326 262.853 204.294 263.813 199.242C267.423 180.119 265.613 157.771 263.143 136.491L262.593 132.349C262.203 129.334 261.803 126.33 261.413 123.363L261.243 122.06C258.833 103.429 256.553 85.7972 256.943 69.7312C257.373 56.8162 258.863 47.5872 261.793 39.8112C263.583 34.7882 266.023 30.2232 269.033 26.2082C271.753 22.4802 275.173 18.9622 279.923 15.0692C288.293 8.42923 298.233 4.58823 309.583 3.57123C319.573 2.77323 329.643 3.64622 340.383 6.18022C349.333 8.27822 359.513 11.5422 372.253 16.4052C381.223 19.7832 390.323 23.4622 399.513 27.2062L404.593 29.2822C425.233 37.5342 446.843 45.7092 465.893 47.7932C484.953 49.8772 499.053 45.8502 509.073 35.4922C532.103 11.6502 515.783 -26.2738 498.483 -66.3688L498.423 -66.4978C479.853 -109.646 458.833 -158.463 492.623 -193.553C500.943 -202.112 510.973 -208.056 522.493 -211.266C532.513 -213.997 543.833 -214.688 556.283 -213.312C557.833 -213.134 559.403 -212.927 561.003 -212.692V-188.604C558.273 -189.096 555.643 -189.481 553.093 -189.761C543.743 -190.751 535.513 -190.314 528.643 -188.411C521.383 -186.443 515.283 -182.737 510.013 -177.395C487.303 -153.787 503.543 -116.075 520.723 -76.1718L520.773 -76.0428C539.473 -32.7198 560.583 16.3172 526.533 51.5592C510.963 67.6232 489.533 74.2692 462.703 71.2662C440.643 68.8612 417.203 60.0152 394.993 51.1332L389.913 49.0572L388.163 48.3502C379.663 44.9142 371.313 41.5392 363.083 38.4262C351.393 33.9582 342.253 31.0882 334.323 29.2282C326.063 27.2622 318.483 26.6292 311.263 27.2262C304.773 27.7842 299.643 29.7312 295.243 33.2462C292.243 35.7332 290.183 37.8302 288.603 39.9292C287.043 42.1062 285.703 44.6492 284.593 47.6372C282.003 54.4742 281.423 63.7182 281.223 70.0122C280.863 84.5202 283.133 101.738 285.553 119.974C285.833 122.118 286.103 124.265 286.373 126.431C286.653 128.711 286.933 131.012 287.243 133.351C289.913 156.524 291.893 181.093 287.613 203.375C286.303 209.927 284.753 215.473 282.833 220.196C280.613 225.61 277.843 230.71 274.663 235.234C267.703 245.181 258.373 253.098 246.663 258.828C235.353 263.933 223.253 265.953 210.593 264.852C199.163 263.714 188.463 260.292 177.863 254.364C157.503 243.018 139.423 225.043 124.053 209.204C120.17 205.251 116.274 201.219 112.46 197.174L111.526 196.197C99.9669 184.095 89.0309 172.646 78.3489 164.43C71.0979 158.849 64.7159 155.216 58.7659 153.36C52.1139 151.215 46.2279 150.874 40.6829 152.245C34.8159 153.667 29.9199 156.62 24.9409 161.753C20.4179 166.09 16.2469 172.218 12.3149 180.475C5.53088 194.58 0.44287 212.386 -4.95813 231.29L-5.04315 231.585L-7.90112 241.516C-14.5581 263.857 -22.1161 287.306 -34.1901 306.421C-41.1611 317.413 -48.7061 325.687 -57.4651 331.908Z"/>
</mask>
<path d="M-57.4651 331.908C-65.8941 337.594 -75.2841 341.267 -85.4741 342.9C-87.4001 343.209 -89.2571 343.427 -91.4261 343.212C-97.6871 343.654 -103.882 343.443 -109.714 342.371C-115.959 341.285 -121.588 339.378 -126.762 336.675C-136.201 331.846 -145.088 324.681 -153.067 315.363C-167.93 297.997 -178.735 274.843 -187.302 254.541L-192.73 241.688C-199.75 225.08 -206.383 209.388 -214.044 197.094C-218.966 188.972 -223.614 183.215 -228.312 179.312C-232.733 175.605 -237.732 173.517 -244.274 172.639C-249.83 171.763 -255.114 172.691 -260.86 175.458C-263.63 176.705 -266.559 178.539 -270.103 181.195C-273.076 183.277 -276.139 185.855 -279.532 188.968C-289.627 198.434 -299.93 211.299 -310.841 224.922L-311.258 225.443L-311.267 225.454C-314.72 229.777 -318.174 234.101 -321.639 238.346C-336.847 256.84 -353.465 275.8 -372.415 288.552C-382.708 295.5 -393.126 299.98 -404.3 302.173C-410.203 303.36 -416.143 303.75 -422.029 303.409C-425.425 303.231 -428.443 302.832 -431.578 302.211C-434.483 301.472 -437.573 300.603 -440.617 299.485C-452.279 295.173 -462.014 288.385 -469.74 279.107C-476.199 271.152 -481.061 261.254 -484.5 248.8C-487.205 239.038 -488.883 227.908 -489.641 214.703C-490.175 202.988 -490.046 190.765 -489.718 179.313L-489.494 170.446L-489.481 169.989C-488.943 150.322 -488.433 131.697 -490.746 115.817C-492.105 106.802 -494.316 99.7712 -497.461 94.1742C-500.825 88.2112 -505.169 83.9302 -510.963 80.9252C-536.8 67.0852 -571.345 91.4082 -607.879 117.254L-608.08 117.396C-649.24 146.438 -691.714 176.408 -730.905 155.36C-740.724 150.191 -748.443 142.598 -753.855 132.868C-758.352 124.839 -761.458 115.142 -763.255 103.227C-765.869 85.3432 -765.291 65.7432 -764.65 44.9282L-764.404 35.6562C-764.142 24.8572 -763.919 13.2612 -764.462 2.02924C-764.981 -9.04576 -766.423 -18.6088 -768.686 -27.0768C-771.192 -36.0678 -774.585 -43.3108 -778.865 -48.8058C-783.802 -54.8388 -790.038 -59.1368 -797.954 -62.0428C-804.941 -64.7758 -812.422 -65.3428 -820.812 -63.7568C-828.399 -62.2998 -835.886 -59.0928 -843.595 -54.0838C-856.001 -45.7258 -867.849 -33.6748 -879 -20.8728L-879 -55.4378C-871.916 -62.2838 -864.498 -68.5588 -856.679 -73.8218C-846.122 -80.6518 -835.463 -85.1708 -824.839 -87.1948C-812.06 -89.6448 -799.679 -88.7398 -788.59 -84.4158C-776.928 -80.1038 -767.194 -73.3158 -759.363 -63.8938C-752.937 -55.6118 -748.168 -45.7798 -744.868 -33.7048C-742.184 -23.5388 -740.506 -12.4078 -739.887 0.418228C-739.306 12.4462 -739.459 24.5132 -739.81 35.8082L-740.044 45.1582L-740.058 45.6432C-740.619 65.1432 -741.151 83.6012 -738.862 99.3172C-737.503 108.331 -735.361 115.454 -732.136 121.038C-728.863 126.935 -724.52 131.216 -718.714 134.299C-692.715 148.187 -658.198 123.81 -621.599 97.9622L-621.557 97.9322C-580.415 68.8592 -537.854 38.8352 -498.784 59.7862C-489.057 64.8902 -481.349 72.4052 -475.846 82.2002C-471.256 90.2942 -468.15 99.9922 -466.354 111.906C-463.635 129.934 -464.19 149.692 -464.808 170.663L-465.044 179.451C-465.362 190.42 -465.574 202.095 -464.998 213C-464.339 224.455 -462.898 234.018 -460.682 242.172C-458.128 251.476 -454.759 258.563 -450.422 263.888C-445.486 269.921 -439.25 274.219 -431.506 277.072C-429.507 277.795 -427.519 278.44 -425.74 278.797C-424.052 279.088 -422.124 279.341 -419.967 279.477C-416.158 279.669 -412.328 279.457 -408.5 278.682C-400.684 277.108 -393.276 273.914 -385.74 268.852C-369.557 257.909 -354.332 240.617 -340.311 223.518C-337.688 220.374 -335.163 217.201 -332.628 214.016C-331.799 212.974 -330.969 211.932 -330.135 210.888L-328.989 209.461C-317.722 195.429 -307.08 182.175 -295.931 171.768C-291.75 167.887 -287.807 164.605 -284.091 162.003C-279.426 158.606 -275.148 155.913 -271.004 153.964C-260.805 149.118 -250.374 147.446 -240.204 148.946C-229.22 150.397 -220.003 154.298 -212.185 160.912C-205.347 166.479 -199.2 174.003 -192.948 184.4C-184.103 198.448 -176.913 215.641 -169.346 233.738L-169.305 233.835L-164.587 244.959C-156.749 263.692 -146.905 284.833 -134.141 299.725C-128.065 306.779 -121.79 311.875 -114.927 315.43C-111.891 317.031 -108.606 318.11 -104.886 318.798C-101.087 319.473 -97.0372 319.627 -92.8972 319.284C-84.6992 318.612 -77.5862 316.188 -71.3192 311.972C-65.4532 307.82 -60.1111 301.826 -54.8601 293.599C-44.4371 277.157 -37.5131 255.495 -31.3421 234.838L-28.5411 225.076C-22.8481 205.058 -17.3921 186.2 -9.69714 170.196C-4.43514 159.317 1.36586 150.921 7.68286 144.851C15.6529 136.67 24.8628 131.26 35.1758 128.804C45.2358 126.308 55.5969 126.895 66.5669 130.434C75.2739 133.133 84.0709 138.064 93.5549 145.375C105.666 154.68 117.825 167.444 129.603 179.812L130.333 180.581L141.743 192.479C155.963 207.219 172.583 223.662 190.173 233.525C197.803 237.762 205.403 240.236 213.333 241.052C221.663 241.803 229.363 240.568 236.443 237.347C244.023 233.644 250.133 228.409 254.733 221.89C256.903 218.814 258.833 215.293 260.333 211.601C261.733 208.326 262.853 204.294 263.813 199.242C267.423 180.119 265.613 157.771 263.143 136.491L262.593 132.349C262.203 129.334 261.803 126.33 261.413 123.363L261.243 122.06C258.833 103.429 256.553 85.7972 256.943 69.7312C257.373 56.8162 258.863 47.5872 261.793 39.8112C263.583 34.7882 266.023 30.2232 269.033 26.2082C271.753 22.4802 275.173 18.9622 279.923 15.0692C288.293 8.42923 298.233 4.58823 309.583 3.57123C319.573 2.77323 329.643 3.64622 340.383 6.18022C349.333 8.27822 359.513 11.5422 372.253 16.4052C381.223 19.7832 390.323 23.4622 399.513 27.2062L404.593 29.2822C425.233 37.5342 446.843 45.7092 465.893 47.7932C484.953 49.8772 499.053 45.8502 509.073 35.4922C532.103 11.6502 515.783 -26.2738 498.483 -66.3688L498.423 -66.4978C479.853 -109.646 458.833 -158.463 492.623 -193.553C500.943 -202.112 510.973 -208.056 522.493 -211.266C532.513 -213.997 543.833 -214.688 556.283 -213.312C557.833 -213.134 559.403 -212.927 561.003 -212.692V-188.604C558.273 -189.096 555.643 -189.481 553.093 -189.761C543.743 -190.751 535.513 -190.314 528.643 -188.411C521.383 -186.443 515.283 -182.737 510.013 -177.395C487.303 -153.787 503.543 -116.075 520.723 -76.1718L520.773 -76.0428C539.473 -32.7198 560.583 16.3172 526.533 51.5592C510.963 67.6232 489.533 74.2692 462.703 71.2662C440.643 68.8612 417.203 60.0152 394.993 51.1332L389.913 49.0572L388.163 48.3502C379.663 44.9142 371.313 41.5392 363.083 38.4262C351.393 33.9582 342.253 31.0882 334.323 29.2282C326.063 27.2622 318.483 26.6292 311.263 27.2262C304.773 27.7842 299.643 29.7312 295.243 33.2462C292.243 35.7332 290.183 37.8302 288.603 39.9292C287.043 42.1062 285.703 44.6492 284.593 47.6372C282.003 54.4742 281.423 63.7182 281.223 70.0122C280.863 84.5202 283.133 101.738 285.553 119.974C285.833 122.118 286.103 124.265 286.373 126.431C286.653 128.711 286.933 131.012 287.243 133.351C289.913 156.524 291.893 181.093 287.613 203.375C286.303 209.927 284.753 215.473 282.833 220.196C280.613 225.61 277.843 230.71 274.663 235.234C267.703 245.181 258.373 253.098 246.663 258.828C235.353 263.933 223.253 265.953 210.593 264.852C199.163 263.714 188.463 260.292 177.863 254.364C157.503 243.018 139.423 225.043 124.053 209.204C120.17 205.251 116.274 201.219 112.46 197.174L111.526 196.197C99.9669 184.095 89.0309 172.646 78.3489 164.43C71.0979 158.849 64.7159 155.216 58.7659 153.36C52.1139 151.215 46.2279 150.874 40.6829 152.245C34.8159 153.667 29.9199 156.62 24.9409 161.753C20.4179 166.09 16.2469 172.218 12.3149 180.475C5.53088 194.58 0.44287 212.386 -4.95813 231.29L-5.04315 231.585L-7.90112 241.516C-14.5581 263.857 -22.1161 287.306 -34.1901 306.421C-41.1611 317.413 -48.7061 325.687 -57.4651 331.908Z" fill="#DFB7B7"/>
<path d="M-57.4651 331.908C-65.8941 337.594 -75.2841 341.267 -85.4741 342.9C-87.4001 343.209 -89.2571 343.427 -91.4261 343.212C-97.6871 343.654 -103.882 343.443 -109.714 342.371C-115.959 341.285 -121.588 339.378 -126.762 336.675C-136.201 331.846 -145.088 324.681 -153.067 315.363C-167.93 297.997 -178.735 274.843 -187.302 254.541L-192.73 241.688C-199.75 225.08 -206.383 209.388 -214.044 197.094C-218.966 188.972 -223.614 183.215 -228.312 179.312C-232.733 175.605 -237.732 173.517 -244.274 172.639C-249.83 171.763 -255.114 172.691 -260.86 175.458C-263.63 176.705 -266.559 178.539 -270.103 181.195C-273.076 183.277 -276.139 185.855 -279.532 188.968C-289.627 198.434 -299.93 211.299 -310.841 224.922L-311.258 225.443L-311.267 225.454C-314.72 229.777 -318.174 234.101 -321.639 238.346C-336.847 256.84 -353.465 275.8 -372.415 288.552C-382.708 295.5 -393.126 299.98 -404.3 302.173C-410.203 303.36 -416.143 303.75 -422.029 303.409C-425.425 303.231 -428.443 302.832 -431.578 302.211C-434.483 301.472 -437.573 300.603 -440.617 299.485C-452.279 295.173 -462.014 288.385 -469.74 279.107C-476.199 271.152 -481.061 261.254 -484.5 248.8C-487.205 239.038 -488.883 227.908 -489.641 214.703C-490.175 202.988 -490.046 190.765 -489.718 179.313L-489.494 170.446L-489.481 169.989C-488.943 150.322 -488.433 131.697 -490.746 115.817C-492.105 106.802 -494.316 99.7712 -497.461 94.1742C-500.825 88.2112 -505.169 83.9302 -510.963 80.9252C-536.8 67.0852 -571.345 91.4082 -607.879 117.254L-608.08 117.396C-649.24 146.438 -691.714 176.408 -730.905 155.36C-740.724 150.191 -748.443 142.598 -753.855 132.868C-758.352 124.839 -761.458 115.142 -763.255 103.227C-765.869 85.3432 -765.291 65.7432 -764.65 44.9282L-764.404 35.6562C-764.142 24.8572 -763.919 13.2612 -764.462 2.02924C-764.981 -9.04576 -766.423 -18.6088 -768.686 -27.0768C-771.192 -36.0678 -774.585 -43.3108 -778.865 -48.8058C-783.802 -54.8388 -790.038 -59.1368 -797.954 -62.0428C-804.941 -64.7758 -812.422 -65.3428 -820.812 -63.7568C-828.399 -62.2998 -835.886 -59.0928 -843.595 -54.0838C-856.001 -45.7258 -867.849 -33.6748 -879 -20.8728L-879 -55.4378C-871.916 -62.2838 -864.498 -68.5588 -856.679 -73.8218C-846.122 -80.6518 -835.463 -85.1708 -824.839 -87.1948C-812.06 -89.6448 -799.679 -88.7398 -788.59 -84.4158C-776.928 -80.1038 -767.194 -73.3158 -759.363 -63.8938C-752.937 -55.6118 -748.168 -45.7798 -744.868 -33.7048C-742.184 -23.5388 -740.506 -12.4078 -739.887 0.418228C-739.306 12.4462 -739.459 24.5132 -739.81 35.8082L-740.044 45.1582L-740.058 45.6432C-740.619 65.1432 -741.151 83.6012 -738.862 99.3172C-737.503 108.331 -735.361 115.454 -732.136 121.038C-728.863 126.935 -724.52 131.216 -718.714 134.299C-692.715 148.187 -658.198 123.81 -621.599 97.9622L-621.557 97.9322C-580.415 68.8592 -537.854 38.8352 -498.784 59.7862C-489.057 64.8902 -481.349 72.4052 -475.846 82.2002C-471.256 90.2942 -468.15 99.9922 -466.354 111.906C-463.635 129.934 -464.19 149.692 -464.808 170.663L-465.044 179.451C-465.362 190.42 -465.574 202.095 -464.998 213C-464.339 224.455 -462.898 234.018 -460.682 242.172C-458.128 251.476 -454.759 258.563 -450.422 263.888C-445.486 269.921 -439.25 274.219 -431.506 277.072C-429.507 277.795 -427.519 278.44 -425.74 278.797C-424.052 279.088 -422.124 279.341 -419.967 279.477C-416.158 279.669 -412.328 279.457 -408.5 278.682C-400.684 277.108 -393.276 273.914 -385.74 268.852C-369.557 257.909 -354.332 240.617 -340.311 223.518C-337.688 220.374 -335.163 217.201 -332.628 214.016C-331.799 212.974 -330.969 211.932 -330.135 210.888L-328.989 209.461C-317.722 195.429 -307.08 182.175 -295.931 171.768C-291.75 167.887 -287.807 164.605 -284.091 162.003C-279.426 158.606 -275.148 155.913 -271.004 153.964C-260.805 149.118 -250.374 147.446 -240.204 148.946C-229.22 150.397 -220.003 154.298 -212.185 160.912C-205.347 166.479 -199.2 174.003 -192.948 184.4C-184.103 198.448 -176.913 215.641 -169.346 233.738L-169.305 233.835L-164.587 244.959C-156.749 263.692 -146.905 284.833 -134.141 299.725C-128.065 306.779 -121.79 311.875 -114.927 315.43C-111.891 317.031 -108.606 318.11 -104.886 318.798C-101.087 319.473 -97.0372 319.627 -92.8972 319.284C-84.6992 318.612 -77.5862 316.188 -71.3192 311.972C-65.4532 307.82 -60.1111 301.826 -54.8601 293.599C-44.4371 277.157 -37.5131 255.495 -31.3421 234.838L-28.5411 225.076C-22.8481 205.058 -17.3921 186.2 -9.69714 170.196C-4.43514 159.317 1.36586 150.921 7.68286 144.851C15.6529 136.67 24.8628 131.26 35.1758 128.804C45.2358 126.308 55.5969 126.895 66.5669 130.434C75.2739 133.133 84.0709 138.064 93.5549 145.375C105.666 154.68 117.825 167.444 129.603 179.812L130.333 180.581L141.743 192.479C155.963 207.219 172.583 223.662 190.173 233.525C197.803 237.762 205.403 240.236 213.333 241.052C221.663 241.803 229.363 240.568 236.443 237.347C244.023 233.644 250.133 228.409 254.733 221.89C256.903 218.814 258.833 215.293 260.333 211.601C261.733 208.326 262.853 204.294 263.813 199.242C267.423 180.119 265.613 157.771 263.143 136.491L262.593 132.349C262.203 129.334 261.803 126.33 261.413 123.363L261.243 122.06C258.833 103.429 256.553 85.7972 256.943 69.7312C257.373 56.8162 258.863 47.5872 261.793 39.8112C263.583 34.7882 266.023 30.2232 269.033 26.2082C271.753 22.4802 275.173 18.9622 279.923 15.0692C288.293 8.42923 298.233 4.58823 309.583 3.57123C319.573 2.77323 329.643 3.64622 340.383 6.18022C349.333 8.27822 359.513 11.5422 372.253 16.4052C381.223 19.7832 390.323 23.4622 399.513 27.2062L404.593 29.2822C425.233 37.5342 446.843 45.7092 465.893 47.7932C484.953 49.8772 499.053 45.8502 509.073 35.4922C532.103 11.6502 515.783 -26.2738 498.483 -66.3688L498.423 -66.4978C479.853 -109.646 458.833 -158.463 492.623 -193.553C500.943 -202.112 510.973 -208.056 522.493 -211.266C532.513 -213.997 543.833 -214.688 556.283 -213.312C557.833 -213.134 559.403 -212.927 561.003 -212.692V-188.604C558.273 -189.096 555.643 -189.481 553.093 -189.761C543.743 -190.751 535.513 -190.314 528.643 -188.411C521.383 -186.443 515.283 -182.737 510.013 -177.395C487.303 -153.787 503.543 -116.075 520.723 -76.1718L520.773 -76.0428C539.473 -32.7198 560.583 16.3172 526.533 51.5592C510.963 67.6232 489.533 74.2692 462.703 71.2662C440.643 68.8612 417.203 60.0152 394.993 51.1332L389.913 49.0572L388.163 48.3502C379.663 44.9142 371.313 41.5392 363.083 38.4262C351.393 33.9582 342.253 31.0882 334.323 29.2282C326.063 27.2622 318.483 26.6292 311.263 27.2262C304.773 27.7842 299.643 29.7312 295.243 33.2462C292.243 35.7332 290.183 37.8302 288.603 39.9292C287.043 42.1062 285.703 44.6492 284.593 47.6372C282.003 54.4742 281.423 63.7182 281.223 70.0122C280.863 84.5202 283.133 101.738 285.553 119.974C285.833 122.118 286.103 124.265 286.373 126.431C286.653 128.711 286.933 131.012 287.243 133.351C289.913 156.524 291.893 181.093 287.613 203.375C286.303 209.927 284.753 215.473 282.833 220.196C280.613 225.61 277.843 230.71 274.663 235.234C267.703 245.181 258.373 253.098 246.663 258.828C235.353 263.933 223.253 265.953 210.593 264.852C199.163 263.714 188.463 260.292 177.863 254.364C157.503 243.018 139.423 225.043 124.053 209.204C120.17 205.251 116.274 201.219 112.46 197.174L111.526 196.197C99.9669 184.095 89.0309 172.646 78.3489 164.43C71.0979 158.849 64.7159 155.216 58.7659 153.36C52.1139 151.215 46.2279 150.874 40.6829 152.245C34.8159 153.667 29.9199 156.62 24.9409 161.753C20.4179 166.09 16.2469 172.218 12.3149 180.475C5.53088 194.58 0.44287 212.386 -4.95813 231.29L-5.04315 231.585L-7.90112 241.516C-14.5581 263.857 -22.1161 287.306 -34.1901 306.421C-41.1611 317.413 -48.7061 325.687 -57.4651 331.908Z" stroke="black" stroke-width="2" mask="url(#path-3-inside-1_334_425)"/>
</g>
</g>
<defs>
<filter id="filter0_d_334_425" x="-883" y="-214" width="1448" height="565.429" filterUnits="userSpaceOnUse" color-interpolation-filters="sRGB">
<feFlood flood-opacity="0" result="BackgroundImageFix"/>
<feColorMatrix in="SourceAlpha" type="matrix" values="0 0 0 0 0 0 0 0 0 0 0 0 0 0 0 0 0 0 127 0" result="hardAlpha"/>
<feOffset dy="4"/>
<feGaussianBlur stdDeviation="2"/>
<feComposite in2="hardAlpha" operator="out"/>
<feColorMatrix type="matrix" values="0 0 0 0 0 0 0 0 0 0 0 0 0 0 0 0 0 0 0.25 0"/>
<feBlend mode="normal" in2="BackgroundImageFix" result="effect1_dropShadow_334_425"/>
<feBlend mode="normal" in="SourceGraphic" in2="effect1_dropShadow_334_425" result="shape"/>
</filter>
<clipPath id="clip0_334_425">
<rect width="1440" height="250" fill="white"/>
</clipPath>
</defs>
</svg>
