<svg width="900" height="392" viewBox="0 0 900 392" fill="none" xmlns="http://www.w3.org/2000/svg">
<path d="M0 16L13.7 28.7C27.3 41.3 54.7 66.7 82 126.2C109.3 185.7 136.7 279.3 163.8 295.3C191 311.3 218 249.7 245.2 182.5C272.3 115.3 299.7 42.7 327 33.5C354.3 24.3 381.7 78.7 409 138.3C436.3 198 463.7 263 491 246C518.3 229 545.7 130 573 98.3C600.3 66.7 627.7 102.3 654.8 157.7C682 213 709 288 736.2 331.8C763.3 375.7 790.7 388.3 818 361C845.3 333.7 872.7 266.3 886.3 232.7L900 199" stroke="#DFB7B7" stroke-width="32" stroke-linecap="round"/>
</svg>
